<?xml version="1.0" encoding="UTF-8"?>
<svg width="1000px" height="1200px" viewBox="0 0 1000 1200" version="1.1" xmlns="http://www.w3.org/2000/svg" xmlns:xlink="http://www.w3.org/1999/xlink">
    <!-- Generator: Sketch 62 (91390) - https://sketch.com -->
    <title>body/mono/Tee 1</title>
    <desc>Created with Sketch.</desc>
  <g transform="translate(0, 500)">
    <g id="body/mono/Tee-1" stroke="none" stroke-width="1" fill="none" fill-rule="evenodd">
        <path d="M774.2812,553.022709 C770.2502,530.258879 766.5552,507.433967 763.1972,484.559988 C761.6032,473.700281 760.0482,462.83056 758.6502,451.942814 C757.6712,444.314483 756.1802,435.591669 761.3702,429.942018 C768.6732,421.990249 775.3072,415.184031 776.2012,403.793605 C777.0422,393.07609 773.4182,381.393267 771.1522,370.990178 C766.4002,349.174633 760.4842,327.628452 753.9472,306.286549 C747.3062,284.603182 740.0242,263.124093 732.6372,241.686059 C725.7312,221.641912 719.0922,201.417522 710.0972,182.186477 C693.0262,145.69105 664.1462,118.664448 628.4542,100.618007 C619.5772,96.1299287 601.471732,80.1082302 592.197732,76.5213724 C583.671732,73.2229053 583.7022,82.8539488 575.3112,79.2260354 C568.6032,76.326108 562.3572,72.4588705 558.6012,65.9820989 C554.5232,58.9495746 544.296524,49.1135653 542.739524,40.9274787 C539.440524,23.5759792 543.0142,8.80766626 530.6302,-4.25202077 C519.6362,-15.8487264 504.8592,-23.7934862 489.5692,-28.0582621 C455.9332,-37.4399679 411.0752,-30.8810851 390.7812,0.374244684 C381.0882,15.3004596 377.7012,33.3418935 364.6222,45.5233912 C353.2012,56.1597963 355.757081,63.4316447 340.965081,68.9130683 C340.127081,69.2244901 317.4196,64.3537782 316.5816,64.6652 C300.3996,61.2025104 284.9332,70.8957535 270.0872,76.5213724 C247.9542,84.9057276 226.8822,95.8195083 207.0852,108.790075 C167.1662,134.945498 132.9762,168.908494 104.7892,207.341545 C76.3692,246.091024 54.3182,289.523846 38.6172,334.917324 C34.8042,345.943257 31.3792,357.103371 28.3582,368.372633 C26.6672,374.679174 24.8602,381.221034 26.9192,387.677779 C28.6032,392.959932 32.3492,396.893259 36.7482,400.062551 C42.7112,404.359371 54.6722,407.152153 54.4392,415.793857 C54.2612,422.364756 52.0322,429.27912 50.9442,435.771913 C49.6492,443.504386 48.5852,451.281919 47.5212,459.048437 C42.6812,494.398313 38.9142,529.947458 37.2482,565.597739 C35.6082,600.699278 34.2472,636.518789 36.6822,671.610315 C36.8432,673.924449 37.5332,676.048325 38.6462,677.843757 C37.6072,678.241295 37.5272,680.177918 38.8202,680.45229 C39.7262,680.64455 40.6302,680.835809 41.5362,681.028069 C43.4182,682.451998 45.7652,683.32518 48.4662,683.410296 C50.2972,683.468374 52.1272,683.550486 53.9562,683.644613 C73.2572,687.679077 92.5552,691.490238 112.1082,694.376147 C135.8762,697.883898 159.7142,700.743771 183.6262,703.06892 C232.7612,707.845389 281.5092,706.261243 330.7092,703.686757 C379.8332,701.115274 428.9282,700.51446 478.1032,701.793192 C527.3212,703.073927 576.5212,705.214826 625.7502,706.091013 C680.7492,707.068336 735.6642,705.566302 790.5042,701.194381 C798.0232,700.59557 802.6752,694.613468 801.1922,687.145354 C792.3072,642.402758 782.2382,597.958566 774.2812,553.022709 Z" id="ðŸŽ¨-Background" fill="#FFFFFF"></path>
        <path d="M301.2356,63.5642 C306.3216,63.3432 311.5076,64.1662 316.5816,64.6652 C317.0236,64.7082 317.1916,65.3902 316.6936,65.4942 C307.61285,67.3912 298.631631,69.98645 289.713098,72.6220867 L285.8946,73.7522 C275.8376,76.7272 266.0756,79.7962 256.3396,83.7642 C236.9356,91.6722 218.5066,102.3462 201.5456,114.6092 C136.2336,161.8302 88.9636,233.3242 59.1336,307.3452 C51.0326,327.4472 44.1686,348.0492 38.6086,368.9982 C37.2566,374.0952 35.9846,379.2122 34.7786,384.3452 C34.4246,385.8502 32.8816,389.7042 33.7276,391.2442 C34.4756,392.6052 37.3836,393.4462 38.7346,394.1542 L43.2957161,396.5192 C52.1925923,401.104634 67.0124511,408.641838 68.4986,409.3762 L70.8164118,410.517491 C108.727057,429.10257 149.23424,444.86246 191.8956,445.9532 L192.2296,442.3102 L192.2296,442.3102 C194.1316,422.1692 196.6276,401.9212 202.0756,382.3992 C202.3686,381.3502 203.7036,381.7042 203.8256,382.6362 C206.8606,405.7472 205.8906,429.0382 204.8316,452.2562 C202.9566,493.3782 200.4666,534.4772 198.2536,575.5832 C197.1456,596.1462 195.7136,616.6952 194.4206,637.2472 C193.1256,657.8402 192.7066,678.9282 189.7496,699.3512 C189.0906,703.9032 183.7586,706.3792 179.7206,705.8992 C175.2526,705.3672 171.8156,701.4322 171.7946,696.9212 C171.7406,685.0232 173.2356,672.9852 174.0666,661.1172 C174.8556,649.8412 175.7026,638.5712 176.5706,627.3012 C179.7426,586.1702 183.3916,545.0872 186.7666,503.9742 C187.9626,489.3922 189.2546,474.8232 190.5846,460.2552 C145.3916,458.7982 103.1706,442.0592 62.8926,422.5012 C62.3096,435.7382 60.9016,448.9512 59.5386,462.1332 C55.7336,498.9192 52.3786,535.6912 49.8676,572.5912 C48.5996,591.2282 47.6766,609.8882 46.8726,628.5502 C46.4776,637.7222 46.1556,646.8962 45.9086,656.0732 C45.8259333,659.131867 45.7512667,662.190978 45.6851926,665.250237 L45.5477972,672.258652 C45.4353817,676.699137 44.9839696,680.812439 41.2476,684.0452 C37.4526,687.3282 32.3266,687.5032 28.5706,684.0452 C23.5426,679.4152 24.4316,673.1072 24.5806,666.8892 C24.7046,661.6442 24.8536,656.4002 25.0266,651.1572 C25.3736,640.6702 25.8166,630.1862 26.3556,619.7072 C28.241729,583.071394 32.0102722,546.581685 36.935272,510.23898 L38.8578186,496.209872 C42.4480913,470.129757 46.3897176,443.456435 54.4156,418.3332 C51.2906,416.7792 48.1746,415.2142 45.0706,413.6422 C39.5646,410.8542 33.8716,408.2382 28.5196,405.1612 C24.2736,402.7202 20.6116,399.3722 19.4296,394.4312 C18.1113714,388.926114 20.1271412,382.904839 21.4662971,377.535265 L21.5826,377.0632 C22.8956,371.6552 24.3096,366.2712 25.8016,360.9102 C31.8516,339.1712 39.3326,317.8562 48.0876,297.0612 C65.6176,255.4292 88.2446,215.8782 115.8836,180.1172 C140.7626,147.9272 170.1526,118.7352 204.5986,96.8412 C221.4386,86.1372 239.3846,77.3482 258.3636,71.1342 C267.2346,68.2302 276.8866,65.7042 286.1746,64.6642 C291.1846,64.1042 296.2016,63.7832 301.2356,63.5642 Z M391.3492,-2.4055 C397.3932,-8.8955 409.4012,-2.1795 406.4992,6.4145 C399.6732,26.6335 388.8032,45.0765 371.8392,58.3625 C355.8932,70.8525 336.8782,78.9635 316.4002,77.2325 C316.2422,77.2185 316.1052,77.1785 315.9842,77.1215 L317.74893,79.5151537 C331.603694,98.2561789 346.219833,116.738337 363.8362,132.0565 C399.7292,163.2675 448.5992,180.1015 495.7892,168.1265 C532.9172,158.7055 565.6272,129.3465 575.2472,91.9305 C573.8682,92.5485 572.2292,92.7595 570.4302,92.3685 C562.7332,90.6975 555.1132,82.6025 550.1492,76.7985 C544.7792,70.5195 540.5852,63.7395 537.5112,56.0755 C531.8852,42.0495 530.0812,23.9905 537.7632,10.4035 C538.7112,8.7285 540.8972,9.6675 541.0832,11.3025 L541.375676,13.8546279 C542.856684,26.5879727 544.70145,38.905375 550.7052,50.5135 C553.6432,56.1935 557.1652,61.7375 561.4522,66.4945 C563.7462,69.0395 566.2332,71.4715 568.9182,73.6055 C571.534671,75.6845588 574.701231,77.1878391 577.046434,79.5734935 L577.4762,80.0315 L577.4882,79.9495 C578.0812,74.9085 581.6162,72.6875 585.0752,72.8265 C588.422619,72.9610161 592.354392,74.4344109 593.877066,75.1401693 L594.021192,75.2081083 C617.373176,86.4178617 638.880511,101.029065 659.1202,117.2395 C700.9762,150.7635 732.3372,194.5885 747.5322,246.1965 C754.990038,271.525149 759.269497,297.624232 763.786832,323.601596 L766.567852,339.517779 C770.784257,363.49949 775.494097,387.952879 785.0122,410.2615 C787.4742,416.0325 785.5762,421.4445 779.5392,423.7135 C772.0012,426.5475 764.4352,429.2915 756.8572,432.0015 C760.5782,447.9645 762.8472,464.4805 765.6352,480.5225 C771.5612,514.6215 778.8222,548.5025 785.0482,582.5565 C788.2312,599.9685 791.1032,617.4385 794.2832,634.8525 C795.8142,643.2385 797.4122,651.6125 798.9662,659.9945 C799.8032,664.5145 800.5622,669.0485 801.3612,673.5745 L801.500252,674.325603 C801.95793,676.713325 802.533057,679.183024 801.8762,681.5725 C801.1272,684.2975 799.0002,686.2225 797.1012,688.1765 C795.5382,689.7855 793.2792,689.7955 791.3642,688.9175 L790.734327,688.626096 C787.314042,687.02639 784.634657,685.430671 783.4212,681.5725 C782.6532,679.1295 782.3762,676.3775 781.8742,673.8605 C780.9112,669.0355 779.9982,664.2045 779.1362,659.3595 C777.4122,649.6665 775.7282,639.9665 774.0842,630.2585 L772.548651,621.168351 C767.278319,589.839243 762.273347,558.319618 759.7432,526.6595 C758.6208,512.6139 757.4312,498.58046 756.23072,484.544332 L755.3292,474.0165 C754.1892,460.6915 752.7962,447.0295 752.5992,433.5245 L748.067825,435.13325 L748.067825,435.13325 L725.9572,442.9495 L725.9572,442.9495 C720.4752,444.8865 713.4952,448.8565 707.5952,448.1345 C704.7072,447.7805 702.5052,446.8715 700.8052,445.2195 C702.8412,473.9525 705.5972,502.6355 709.2702,531.1725 C712.6122,557.1385 716.3172,583.0695 720.6932,608.8825 C722.8602,621.6645 725.0872,634.4345 727.5062,647.1705 C728.7152,653.5395 729.9632,659.8995 731.2492,666.2535 C731.8902,669.4235 732.6532,672.5965 733.1532,675.7925 C733.7252,679.4525 732.7172,681.7045 730.6722,684.7155 C728.9932,687.1885 725.6342,688.4585 722.9112,686.7515 C719.3052,684.4885 717.4242,682.5285 716.3632,678.4075 C715.3992,674.6645 714.8132,670.7565 714.0672,666.9655 C712.6902,659.9675 711.3592,652.9615 710.0742,645.9455 C707.3872,631.2735 704.9102,616.5655 702.6982,601.8135 C694.9032,549.8445 689.9572,497.4405 687.4592,444.9515 C686.2262,419.0545 685.8452,393.1345 686.0642,367.2105 C686.1762,353.9225 686.6102,340.5965 687.5502,327.3415 C688.5022,313.9245 690.4822,300.7755 692.2502,287.4875 C692.3122,287.0195 692.9722,286.9925 693.0002,287.4875 C693.8372,302.3855 695.1492,317.2665 695.7922,332.2035 C696.4062,346.4565 696.6752,360.7315 697.1632,374.9895 C697.8042,393.7315 698.6932,412.4845 699.8702,431.2245 C702.0012,428.8935 705.2132,427.5495 708.4272,428.0745 C713.0832,427.0975 718.0952,424.6545 722.5342,423.1715 L739.2682,417.5815 L739.2682,417.5815 C748.0652,414.6435 756.8622,411.7255 765.6902,408.8955 C757.797376,382.342147 752.390601,355.393137 747.773782,328.051212 L745.714766,315.754626 C741.639065,291.550591 737.244581,267.335119 729.8622,243.8965 C722.1012,219.2545 710.4872,196.3445 695.0802,175.5975 C679.8932,155.1505 661.4162,137.1465 642.3922,120.3065 C626.1052,105.8905 608.6822,92.8745 592.0702,78.8545 C592.2442,79.7835 592.2812,80.8065 592.1282,81.9305 C588.5962,107.7805 575.1112,131.8535 556.3182,149.7585 C518.5632,185.7295 462.6762,193.1925 414.3542,176.3245 C367.6112,160.0085 326.2842,121.3665 311.6832,73.5495 C311.4332,72.7315 312.5292,72.4065 312.9692,73.0075 C313.7792,74.1175 314.5932,75.2275 315.4082,76.3375 C315.3532,75.8965 315.5822,75.4165 316.1262,75.2065 C333.1622,68.6285 349.8912,59.2995 362.6612,46.1025 C368.8852,39.6695 374.3172,32.3815 378.6052,24.5215 C380.6592,20.7565 382.5042,16.8575 383.9762,12.8285 L384.350296,11.786133 C386.134209,6.73918678 387.625039,1.59275806 391.3492,-2.4055 Z" id="ðŸ–-Ink" fill="#000000"></path>
    </g>
  </g>
  <g transform="translate(240, 10)">
    <g id="head/mono/Afro" stroke="none" stroke-width="1" fill="none" fill-rule="evenodd">
        <path d="M195.395558,82.6720788 C346.965479,75.2183452 415.36224,181.93629 419.786376,229.602142 C422.857417,262.689688 403.308238,300.826871 403.308238,330.393336 C403.308238,345.485177 421.786376,377.885575 413.184129,399.881894 C394.037459,448.840758 353.497414,503.176 301.837107,503.176 C250.1768,503.176 182.944289,517.462673 125.861889,435.730873 C120.505934,428.062102 52.7621738,384.476442 46.1808144,343.060094 C29.7871913,239.895391 87.2439991,87.9906333 195.395558,82.6720788 Z" id="ðŸŽ¨-Background" fill="#FFFFFF"></path>
        <path d="M188.2499,16.2572 C193.6699,10.0572 202.8199,7.5772 210.9499,8.0572 C222.7599,8.7572 233.0309,16.0472 244.7809,16.5872 C257.0999,17.1572 268.9899,12.8872 281.3399,14.8672 C288.9099,16.0872 296.4099,19.5972 301.2599,25.5172 C318.0599,20.7072 336.2999,27.0772 346.9999,40.9872 C360.1999,38.9372 374.5599,47.6782 378.5999,60.3972 C395.3699,60.9372 411.1999,74.4072 413.0699,91.2872 C419.7709,93.0572 425.5899,97.6782 429.1599,103.7872 C433.3099,110.8672 433.9999,118.9872 433.2499,126.9672 C441.1399,130.9972 445.1499,139.6572 446.1999,148.8172 C453.4099,154.1972 456.5399,163.8672 455.0699,172.9972 C460.5899,176.1072 463.4409,183.3472 463.4099,189.8072 C463.3799,195.8372 461.7809,201.1782 464.0309,206.9972 C466.035244,212.180013 466.754813,216.499427 465.652301,221.928296 L465.5399,222.4572 C465.3449,223.3422 465.1809,224.1912 465.0339,225.0282 C466.5269,226.3382 467.7899,227.9802 468.7379,229.8902 C472.1959,236.8702 471.6809,244.8312 469.0439,251.9102 C470.1989,256.4182 470.0519,261.1802 468.3449,265.5132 C471.5419,270.1182 473.2229,275.7662 472.7289,281.6262 C472.1749,288.1872 469.1789,294.0622 464.6359,298.4062 C465.8459,307.3682 462.2019,317.0512 455.6129,323.3612 C456.5479,328.7262 455.7409,334.3492 452.8059,339.4352 C450.7139,343.0602 447.8979,345.7602 444.6489,347.6422 C444.7559,350.6352 444.3509,353.6962 443.3549,356.7632 C441.9719,361.0192 439.6299,364.9402 436.5479,368.0982 C438.3869,379.8562 431.3469,392.9032 418.9559,396.2022 C417.9149,396.4792 416.9219,396.6062 415.9709,396.6262 C414.7399,407.9352 412.0519,419.0872 407.8899,429.6782 C397.3099,456.6472 378.0699,480.2272 352.9799,494.9372 C340.5699,502.2072 326.6299,507.1872 312.3999,509.2672 C302.1599,510.7672 292.3099,510.3972 282.0309,509.3772 C269.1299,508.0872 256.1699,506.1572 243.6299,502.8372 L241.612928,502.30101 C236.414452,500.908369 230.933477,499.301431 226.4299,496.4972 C221.3899,493.3572 218.7709,488.5172 217.6109,482.8172 C216.963671,479.6447 218.973186,476.232508 222.44624,476.166814 L222.6699,476.1672 C223.4299,476.1832 224.1835,476.1544 224.946572,476.1064 L225.5209,476.0672 L225.5499,476.0672 C225.5899,476.0572 225.6109,476.0572 225.6499,476.0572 C225.9899,476.0072 226.3199,475.9072 226.6499,475.8572 C230.4707,475.214 233.812268,475.851824 237.400088,477.045188 L237.8499,477.1972 C243.8899,479.2772 249.8799,481.2072 256.1199,482.6372 C262.5699,484.1072 269.0999,485.2772 275.6499,486.1972 L276.2999,486.2772 L276.4999,486.3072 L276.5999,486.3172 L276.5999,486.3172 C276.6199,486.3172 276.6399,486.3172 276.6599,486.3272 L278.5899,486.5672 L278.5899,486.5672 C280.1109,486.7472 281.6299,486.9072 283.1499,487.0672 C285.9499,487.3472 288.7499,487.5672 291.5499,487.7272 C339.8799,490.4472 380.4699,452.3972 392.7199,406.7772 C397.1599,390.2672 397.4499,373.7972 396.1399,357.3172 C395.7199,356.1172 395.4699,354.7872 395.4799,353.3272 C395.4799,352.5672 395.5209,351.8172 395.5699,351.0572 C393.9409,335.1172 391.1109,319.1672 389.3399,303.1672 C387.2709,284.4772 386.1199,265.6782 386.5399,246.8672 C386.7499,237.5772 387.7399,228.3772 389.0399,219.1782 L389.5099,215.8732 L389.5099,215.8732 C383.6349,214.7262 378.1729,211.9402 373.8239,207.9072 C364.3859,213.3572 352.1709,213.8402 342.8549,208.0852 C332.4149,214.6322 317.8289,215.2262 307.3159,208.8252 C300.9619,213.3612 292.9559,215.3182 285.0969,213.5962 C281.5619,212.8222 278.0469,211.1472 275.0369,208.8282 C272.8879,209.2072 270.7109,209.3542 268.5459,209.2412 L268.0989,209.4912 L268.0989,209.4912 C263.1089,212.1212 257.5809,213.8522 251.8919,213.6592 C247.6799,213.5172 243.3409,212.6862 239.3239,211.1142 C235.0329,213.7042 230.3369,215.4722 225.3129,216.1062 C217.9759,217.0312 210.0579,215.4082 203.9559,211.2462 C192.8049,217.5982 179.0889,218.5762 167.0529,214.3082 C164.5879,218.4832 161.1769,222.0832 157.1829,224.8582 C157.8979,227.4202 158.1259,230.1522 157.8799,232.7792 C157.4759,237.1032 156.3919,240.9802 154.6189,244.4622 C156.4879,248.3502 157.0499,253.1242 156.0039,257.9162 C154.5129,264.7502 150.5369,270.6952 145.3889,275.3252 C144.9349,286.2312 138.9539,296.4572 129.2199,302.1382 C128.7269,302.4252 128.2369,302.6592 127.7479,302.8702 C127.3179,303.4582 126.8039,303.9752 126.2169,304.4112 C120.0269,310.1302 110.2309,309.6752 102.4719,306.4442 C102.3219,306.4512 102.1729,306.4642 102.0209,306.4672 C99.2499,306.5372 97.3609,305.4572 96.2399,303.8672 C95.1109,303.9282 93.9899,304.0472 92.8609,304.2572 C88.7399,305.0272 84.2199,306.5072 80.4899,308.4282 C70.8099,313.4072 66.3299,322.2072 64.9899,332.7872 C63.5309,344.3272 66.8499,356.0872 75.7809,363.8972 C80.1199,367.6972 85.6699,370.0772 91.3099,371.0772 C97.5399,372.1872 104.1999,369.4572 108.7999,374.8072 C109.7199,375.8672 110.3499,377.3472 109.8499,378.7772 C108.2899,383.2372 105.7199,384.9472 101.6999,385.5672 C107.5099,392.4572 113.4699,399.1172 120.0699,405.3072 C127.2099,412.0172 134.5899,418.5172 141.0309,425.9172 C147.8399,433.7472 153.9899,442.0472 158.2599,451.5472 C160.6999,457.0072 162.6599,462.6372 164.7709,468.2272 L165.147884,469.201099 C167.501532,475.140342 170.632314,480.865476 167.0099,487.0672 C165.5699,489.5072 162.3099,491.8672 159.3099,491.4772 C150.8609,490.3972 148.0309,484.6872 145.4299,477.2472 C143.4699,471.6272 141.9699,465.8472 139.8609,460.2772 C139.4659,459.2462 139.0359,458.2252 138.5849,457.2102 C133.7129,458.5682 128.3559,457.4902 124.0079,454.7122 C119.3619,456.7712 114.2149,457.7982 109.2439,457.7112 C102.5879,457.5942 96.5069,455.7452 91.2789,452.4102 C90.8629,452.3002 90.4449,452.1942 90.0299,452.0752 C82.0769,455.1212 72.7629,454.5772 65.5619,449.6402 C60.8989,446.4432 57.7109,442.1762 55.8989,437.4252 C49.8739,437.3102 43.9139,435.1742 39.5969,430.9002 C35.6329,426.9762 33.3159,421.9132 32.6279,416.6522 C27.4419,415.6252 22.5799,413.1182 18.7669,408.8952 C15.5829,405.3682 13.6479,400.8762 12.9939,396.2122 C6.6779,394.4102 0.9819,390.2862 -2.1291,384.5362 C-5.0241,379.1832 -5.4421,373.3762 -4.0261,368.0942 L-4.3931,367.5662 L-4.3931,367.5662 C-10.8991,364.1612 -15.8641,358.5872 -16.3741,350.6252 C-16.5181,348.3582 -16.2741,346.0902 -15.6591,343.9442 C-15.8811,341.5452 -15.7391,339.1472 -15.1101,336.8272 C-23.8601,328.3172 -27.0301,314.6472 -22.2801,303.3472 C-30.8301,294.1472 -33.0901,279.5972 -26.8201,268.6782 C-31.1201,263.4772 -33.3301,256.8472 -32.9601,249.7672 C-32.5001,240.9282 -28.4501,233.2072 -23.6001,226.0572 C-27.2001,222.0772 -29.1201,216.5272 -28.9791,211.1672 C-28.7801,203.3972 -24.6501,196.7072 -19.4791,191.1672 C-23.9901,177.4872 -18.9501,162.6472 -7.8801,153.9872 C-10.1201,150.2972 -10.9501,145.7272 -10.2191,141.0972 C-8.9401,133.0072 -2.8701,127.4972 3.6799,123.1372 C2.3099,118.6782 2.6699,113.8672 4.8499,109.2572 C7.7599,103.1072 13.2499,99.2072 18.9799,95.9072 C20.4599,82.2672 35.6999,70.6172 48.4799,77.6572 C45.3099,67.5072 54.4409,56.5472 64.9409,55.3872 C70.0799,39.8072 87.8099,29.9872 103.7499,33.8572 C111.8999,22.7172 127.0699,18.4282 139.9499,23.2072 C154.1109,12.3572 171.6799,10.7472 188.2499,16.2572 Z M87.3799,322.1677 C97.3299,321.6277 104.7899,329.7477 110.0309,337.1777 C114.9499,344.1477 102.3299,351.5077 98.6499,343.8277 C97.3299,341.0877 95.8299,338.1877 93.8199,335.7877 C93.4824,336.2602 93.184275,336.749575 92.8875562,337.251606 L92.5899,337.7577 C92.3699,338.1277 92.1399,338.5077 91.9499,338.8977 C91.9699,338.9677 91.6699,339.8877 91.6599,339.9277 C90.8399,342.4177 89.0499,344.0177 86.6109,344.8777 C83.4599,345.9777 80.4799,343.6077 79.4699,340.8277 C77.8609,336.3877 81.5999,332.5177 85.4899,330.7577 C81.6699,330.1377 77.9099,331.4377 75.1499,334.3777 C74.7709,334.7877 74.1299,334.4577 74.1109,333.9477 C73.7899,326.9777 81.0799,322.5077 87.3799,322.1677 Z" id="ðŸ–-Ink" fill="#000000"></path>
    </g>
  </g>
  <g transform="translate(370, 200)">
    <g id="face/Suspicious" stroke="none" stroke-width="1" fill="none" fill-rule="evenodd">
        <path d="M155.8839,250.9317 C163.4429,249.8797 171.5709,245.5987 178.7909,249.0777 C182.1659,250.7037 183.7679,256.2647 181.4859,259.3557 C178.0009,264.0767 174.4029,264.8577 168.7459,265.3117 C164.5049,265.6517 160.2409,265.6767 156.0109,265.1877 L154.934929,265.056029 C147.387247,264.081793 139.542445,261.975155 133.6949,256.9027 C132.4989,255.8647 133.1119,253.6227 134.6469,253.2987 C141.5909,251.8377 148.8549,251.9107 155.8839,250.9317 Z M146.9873,233.5262 C146.9843,233.4652 147.0773,233.4652 147.0803,233.5262 C147.2633,237.8462 148.4773,241.8512 150.7213,245.5472 C150.7523,245.6002 150.6713,245.6472 150.6403,245.5952 C148.3953,241.8962 147.1703,237.8502 146.9873,233.5262 Z M170.814304,144.367155 C178.365682,148.9572 189.871664,159.660291 181.748119,171.039573 C172.185929,181.073062 158.418535,169.568982 151.634201,164.366134 C145.343449,160.333898 138.275437,170.704507 144.112,175.412823 C193.135736,211.708059 213.030606,145.567387 174.633685,138.970386 C170.406047,138.243425 168.835891,142.947174 170.814304,144.367155 Z M209.464,93.0002 C211.237197,93.0002 212.933146,93.6020668 214.477662,94.7157521 C215.997787,95.8118502 217.37393,97.4115833 218.520105,99.4068237 C220.689089,103.182554 222.045,108.395834 222.045,114.1602 C222.045,119.924566 220.689089,125.137846 218.520105,128.913576 C217.37393,130.908817 215.997787,132.50855 214.477662,133.604648 C212.933146,134.718333 211.237197,135.3202 209.464,135.3202 C207.690803,135.3202 205.994854,134.718333 204.450338,133.604648 C202.930213,132.50855 201.55407,130.908817 200.407895,128.913576 C198.238911,125.137846 196.883,119.924566 196.883,114.1602 C196.883,108.395834 198.238911,103.182554 200.407895,99.4068237 C201.55407,97.4115833 202.930213,95.8118502 204.450338,94.7157521 C205.994854,93.6020668 207.690803,93.0002 209.464,93.0002 Z M127.3467,98.8798 L128.014238,98.7532209 C131.908988,98.044836 133.877121,98.2832737 137.2687,100.9378 C139.8177,102.9328 139.0877,106.8618 137.2687,108.9598 C134.100382,112.615777 131.004648,111.968245 126.664534,112.107728 L126.3597,112.1188 C122.7427,112.2658 119.1227,112.3688 115.5027,112.4238 C114.5127,112.4398 113.5217,112.4358 112.5317,112.4418 C112.6367,121.6028 107.3547,128.5778 100.3987,133.8808 C95.9027,137.3098 90.2157,133.3538 88.6117,129.0858 C87.2847,125.5538 86.9997,121.2108 87.6877,117.3438 C87.9425333,115.918383 88.4738181,114.371126 89.2861757,113.051725 L89.5147,112.6978 L89.4777,112.1918 C89.4687,112.0668 89.4777,111.9458 89.4737,111.8208 C83.0162,111.4284 76.59596,110.78085 70.177988,109.967088 L68.0387,109.6898 C62.5607,108.9648 54.5157,108.7318 50.0827,105.1688 C49.9427,105.0548 49.9927,104.8058 50.1407,104.7268 C52.5776545,103.4143 55.0501442,103.488581 57.7756042,103.367584 L58.1667,103.3488 C61.1307,103.1958 64.08795,103.068112 67.0502625,102.966581 L70.0147,102.8738 C77.5967,102.6568 85.1857,102.2888 92.7607,101.8858 C94.0777,101.8158 95.3947,101.7328 96.7137,101.6518 C98.0927,101.0738 99.5587,100.7278 101.0067,100.6638 C102.2067,100.6098 103.3607,100.7758 104.4457,101.1208 C107.21245,100.90705 109.977513,100.674175 112.740466,100.423862 L115.5027,100.1678 C119.4007,99.7968 123.4987,99.6348 127.3467,98.8798 Z M175.2153,30.2196 C183.5483,26.1246 193.6803,26.0246 202.2623,29.4136 L202.831053,29.6439032 C211.498518,33.2408114 221.942601,41.5490409 219.6813,51.8976 C217.6123,61.3696 202.7553,59.7646 202.0023,50.8116 C197.2053,44.1656 186.4483,42.7076 179.6863,46.9336 C175.5853,49.4976 172.7703,53.8146 170.8463,58.1686 C169.2063,61.8766 168.8973,66.4556 166.3783,69.6856 C166.2963,69.7906 166.1323,69.8096 166.0133,69.7816 C158.5013,68.0436 158.3273,56.1066 159.6083,50.3166 C161.4693,41.8986 167.4423,34.0416 175.2153,30.2196 Z" id="ðŸ–-Ink" fill="#000000"></path>
    </g>
  </g>
</svg>
