<?xml version="1.0" encoding="UTF-8"?>
<svg width="1000px" height="1200px" viewBox="0 0 1000 1200" version="1.1" xmlns="http://www.w3.org/2000/svg" xmlns:xlink="http://www.w3.org/1999/xlink">
    <!-- Generator: Sketch 62 (91390) - https://sketch.com -->
    <title>body/mono/Tee 1</title>
    <desc>Created with Sketch.</desc>
  <g transform="translate(0, 500)">
    <g id="body/mono/Tee-2" stroke="none" stroke-width="1" fill="none" fill-rule="evenodd">
        <path d="M47.9999306,350.796495 L764.472184,407.675144 L765.22239,412.543719 C777.228219,490.733904 783.292388,543.780294 783.414896,571.682888 L783.41679,572.537838 C783.41679,600.204314 791.909995,644.205775 808.896404,704.542222 L809.947,708.2567 L46.9999306,709.585887 L37.9999306,527.974083 L47.9999306,350.796495 Z M472.169667,-38.9088304 C501.301919,-37.471208 530.661837,-24.9820863 532.929602,-17.0000671 C537.980194,0.776878561 546.102366,76.8737371 572.811802,88.5649563 C599.521238,100.256176 656.5428,89.597634 672.846023,117.517312 C689.149246,145.43699 742.689609,259.249605 742.689609,285.769002 C742.689609,303.448601 568.207587,309.585478 219.243541,304.179635 C223.698387,161.777946 242.271009,86.9220349 274.961405,79.611901 L277.879657,78.9669235 C325.155293,68.6399052 353.409726,68.3069576 369.536941,51.659581 C385.993282,34.6724619 388.979547,5.51392428 395.806566,-17.0000671 C399.568188,-29.4050602 436.420784,-40.6729712 472.169667,-38.9088304 Z" id="ðŸŽ¨-Background" fill="#FFFFFF"></path>
        <path d="M536.057,5.5967 C536.167,5.51392428 536.278,5.4867 536.397,5.5467 C538.667,6.6367 539.137,8.8167 539.917,11.0867 C541.057,14.4067 542.377,17.6467 543.597,20.9367 C546.028,27.5367 548.347,34.1267 551.057,40.6167 C553.837,47.2967 556.717,53.8567 560.017,60.3067 C561.607,63.4267 563.317,66.4867 565.057,69.5267 C566.257,71.6367 567.377,74.5367 568.957,76.5167 C569.077,75.8867 569.247,75.2867 569.447,74.7267 C569.238,74.8267 569.037,74.9367 568.847,75.0567 C568.447,75.3067 567.967,74.8067 568.207,74.4167 C569.067,72.9967 570.187,72.0367 571.467,71.3867 C575.007,67.4567 653.036,86.2117 674.367,107.2767 C713,145.4277 739.077,192.5967 756.227,242.7767 C765.697,270.4667 774.417,298.4267 783.427,326.2667 C792.947,355.7067 802.887,385.0167 812.427,414.4367 C814.517,420.9067 809.957,426.7867 804.197,428.9167 C793.467,432.8767 782.657,436.6067 771.757,440.0567 C777.047,460.3667 780.747,481.1067 783.407,501.9067 C788.897,544.7967 789.587,588.5567 798.238,630.9967 C800.224214,640.737414 802.73726,650.340169 805.392022,659.917057 L806.007,662.1267 C807.587,667.7467 809.028,673.4167 810.967,678.9167 C812.637,683.6467 814.797,688.4167 815.967,693.2967 C817.337,699.0367 815.317,705.3067 809.947,708.2567 C805.637,710.6267 799.467,709.6467 796.867,705.1967 C796.337,704.2867 796.017,703.2967 795.887,702.2967 C795.497,701.4667 795.137,700.6167 794.817,699.7467 C794.692,699.4117 794.582,699.0642 794.477,698.71545 L794.167,697.6767 C793.407,695.1967 792.707,692.6967 792.007,690.1967 C790.867,686.185271 789.719653,682.188537 788.451606,678.212793 L787.807,676.2267 C784.667,666.6667 781.857,657.0267 779.407,647.2667 C770.639169,612.27009 768.779087,576.036502 766.372029,540.171452 L766.247,538.3167 C764.067,506.1767 762.767,474.1067 765.437,442.0367 L765.072,442.15545 L765.072,442.15545 L764.707,442.2667 C761.238,443.3267 757.757,444.3667 754.267,445.3767 C754.157,445.4167 754.057,445.4567 753.947,445.4867 C751.713667,446.178367 749.417833,446.835311 747.082648,447.445959 L745.677,447.8067 L744.687,448.0767 L743.644832,448.373214 C740.337794,449.332324 736.966048,450.435271 733.537,450.3267 C727.857,451.2367 722.077,451.7867 716.397,451.8067 C718.147,480.4167 720.167,509.0067 722.577,537.5667 C724.997,566.2767 728.207,594.8767 731.537,623.4767 C733.177,637.6067 734.937,651.7067 736.877,665.7867 C737.857,672.9267 738.877,680.0267 740.177,687.1067 C741.517,694.3467 743.887,702.0867 742.457,709.4067 C742.427,709.3967 742.397,709.3867 742.367,709.3867 C741.887,711.5067 740.607,713.4067 738.377,714.7167 C734.287,717.1067 728.567,715.7067 726.217,711.5267 C726.017,711.1767 725.827,710.8167 725.647,710.4467 C723.238,711.4767 720.597,711.8767 717.357,711.9067 L673.417,712.3467 L673.417,712.3467 C653.447,712.5467 633.477,712.7567 613.497,713.0467 C550.768111,713.971144 488.039222,715.037811 425.310333,715.797208 L401.787,716.0667 C366.507,716.4367 331.207,717.1667 295.927,717.1567 C278.278,717.1567 260.647,717.0967 242.997,716.6667 C234.447,716.4567 225.917,716.1267 217.377,715.7767 L215.86927,715.70778 C209.051518,715.371302 201.813207,714.739803 195.147,716.2667 C193.307,719.8467 188.607,720.5867 186.147,716.9267 C180.525364,708.552155 178.99138,696.867801 177.952822,686.632634 L177.587,682.9467 C176.437,671.4767 175.427,660.0067 174.677,648.5167 C172.017,607.8067 171.047,567.0567 172.267,526.2667 C172.887,505.4767 174.797,484.8067 177.057,464.1367 C177.767,457.6867 178.507,451.2467 179.307,444.8167 L179.32075,442.53045 C179.322,441.7992 179.317,441.1017 179.297,440.4467 L179.097625,434.242481 C178.932,429.070997 178.778094,423.896583 178.714031,418.72168 L178.687,415.6167 L178.657,409.8367 C173.717,409.3667 168.447,407.7267 164.187,406.9367 C157.278,405.6467 150.387,404.2567 143.517,402.7867 C129.757,399.8267 116.147,396.3267 102.627,392.4567 L99.7515955,391.6308 C87.2762857,388.036139 74.6291429,384.203129 62.827,378.8267 C58.207,376.7167 53.597,374.3367 49.547,371.2167 C49.307,374.4967 48.937,377.7667 48.717,381.0167 C48.278,387.4467 47.757,393.8567 47.327,400.2867 L46.9157963,406.404617 C46.2403333,416.598367 45.632,426.7817 45.357,437.0067 C44.137,481.6067 43.927,526.3967 46.287,570.9667 C47.457,593.2767 49.127,615.5867 51.537,637.8067 C52.717,648.7367 53.967,659.6967 55.507,670.5867 C57.097,681.7767 59.967,692.8967 60.847,704.1667 C61.687,715.0367 45.067,716.6167 42.337,706.6767 C39.0680714,694.758129 38.2353418,681.900412 36.5122838,669.645767 L36.317,668.2867 C34.407,655.2667 32.877,642.1967 31.557,629.1067 C27.0003804,583.9567 25.817,538.5767 28.207,493.2567 C29.3432963,471.551515 32.0374527,449.929786 35.298291,428.454022 L35.677,425.9767 C37.1614444,416.358922 38.5510741,406.741144 40.2321715,397.165507 L40.877,393.5767 C42.387,385.3467 43.547,376.3967 45.997,368.1667 L45.2687342,367.495139 C43.9071775,366.226759 42.4316154,364.759008 41.357,363.1767 C37.657,362.6767 34.507,360.0167 34.897,355.1867 C36.167,339.3167 41.967,323.1767 47.137,308.1967 C52.327,293.1367 58.347,278.3567 65.167,263.9567 C89.157,213.3467 123.707,167.3967 165.957,130.5867 C188.367,111.0567 212.927,93.7367 240.067,81.4067 C253.447,75.3167 267.287,70.6067 281.787,68.0667 C288.967,66.8067 296.217,65.8267 303.517,65.6167 C309.439321,62.1202714 316.470938,63.5915565 322.205506,67.4252616 L322.517,67.6367 L322.528,67.6367 L323.997,67.9267 L323.997,67.9267 C324.357,67.9967 324.347,68.5667 323.997,68.6467 C323.977,68.6467 323.947,68.6567 323.927,68.6667 C324.867,69.4067 325.757,70.1967 326.587,71.0467 C329.327,73.8467 329.317,77.2267 327.907,79.9567 C336.297,87.7367 341.597,97.7267 347.147,107.7967 C353.097,118.5767 360.887,127.8967 370.367,135.7567 C405.117,164.5767 456.227,177.3267 499.767,163.7167 C531.787,153.7167 559.137,126.6467 566.697,94.0567 C564.907,94.6967 562.967,94.7967 561.127,94.1367 C552.486365,91.0563825 549.191883,81.6129812 545.886947,73.7174982 L545.727,73.3367 C542.497,65.6867 539.787,57.9167 537.647,49.8967 C535.488,41.7967 534.217,33.2467 533.687,24.8867 C533.482455,21.5812455 533.572455,18.2757909 533.743394,14.9703364 L533.895201,12.23718 C534.012004,9.76061111 533.975667,7.23003333 536.057,5.5967 Z M395.4675,-16.6933 C395.5875,-16.9933 396.0575,-17.1533 396.2375,-16.7933 C403.8865,-1.0133 398.8675,20.6067 391.6365,35.6567 C384.0675,51.3967 372.6675,63.3367 359.1575,73.6667 C357.2975,75.0867 355.3865,76.4867 353.4475,77.8567 C342.1765,85.8167 332.1365,64.3567 345.1475,60.2567 C358.7075,53.3667 369.7275,41.0867 377.3865,28.1867 C381.5275,21.2167 385.1975,13.9567 388.0075,6.3367 C390.8075,-1.2633 392.4875,-9.1733 395.4675,-16.6933 Z" id="ðŸ–-Ink" fill="#000000"></path>
    </g>
  </g>
  <g transform="translate(290, 100) scale(0.9)">
    <g id="head/mono/Bun-2" stroke="none" stroke-width="1" fill="none" fill-rule="evenodd">
        <path d="M397.5017,243.7566 C395.1257,213.0126 398.8077,180.7886 386.9537,151.5666 C366.2857,103.0816 308.3297,86.9156 263.3987,68.4566 C245.398536,63.1379728 184.830055,62.3945685 163.754,55.3552 C116.053659,39.423363 104.656889,20.4408103 66.7547,50.7756 C60.3567,55.9576 56.3537,61.5896 53.4337,69.2846 L53.5537,69.3176 C52.7197,72.5256 53.6137,75.7266 55.4927,78.1716 C39.0587,94.9696 32.1817,120.1536 40.6137,142.5146 C68.1307,200.7036 66.8367,232.1666 57.9707,294.7226 C46.3927,353.1226 72.8497,374.4556 116.6657,406.2316 C114.8817,409.6906 114.5117,414.2876 116.8377,417.3396 C167.5047,488.5386 263.037604,522.532978 344.890604,486.394978 C378.115604,471.606978 392.9487,436.2236 401.4137,404.2966 C411.2747,368.5476 414.3047,330.8776 406.2767,294.4616 C403.0387,277.6196 398.8207,260.8996 397.5017,243.7566 Z" id="ðŸŽ¨-Background" fill="#FFFFFF"></path>
        <path d="M105.244,-96.8628 C111.394175,-97.7863088 116.038608,-93.970587 118.247976,-88.5923941 L118.364,-88.3028 C119.074,-86.4728 119.864,-84.6928 120.714,-82.9428 C136.104,-90.4928 158.064,-88.5528 167.804,-73.2628 C174.754,-62.3428 170.514,-49.3828 167.894,-37.8028 L166.174,-30.1728 C169.49875,-28.05705 172.005962,-24.2682 171.888262,-20.3448366 L171.874,-20.0428 L171.174,-9.4028 C173.394,-11.6528 175.424,-14.1028 177.234,-16.7128 C178.484,-19.0028 179.834,-21.2528 181.284,-23.4328 C189.814,-36.2628 208.964,-25.1128 201.924,-11.3728 C200.574,-8.7228 199.054,-6.2128 197.424,-3.7928 C195.584,-0.2228 194.074,3.4472 192.914,7.2172 C196.244,8.6672 198.804,11.8872 199.074,16.7472 C199.704,28.0972 193.744,37.5672 184.264,43.5172 C181.474,45.2672 178.594,45.6072 175.984,44.9572 C175.524,45.5772 175.064,46.1972 174.624,46.8272 C178.404,49.8972 181.814,53.3972 184.744,57.2772 C193.564,55.9572 202.434,55.3372 211.304,55.3172 C222.144,50.0072 235.124,50.1172 246.774,52.1072 C254.274,53.3872 261.474,55.8772 268.854,57.6672 C276.634,59.5472 284.534,59.6172 292.404,60.8972 C302.324,62.5072 311.024,67.0872 316.494,74.3972 C322.504,74.5772 328.824,77.0372 334.064,80.3772 C346.264,88.1572 358.394,96.0472 370.564,103.8772 C375.234625,106.883242 376.98101,111.682178 376.122343,117.034803 L376.064,117.3772 L375.654,119.5972 L376.616833,120.963599 C380.341184,126.22304 384.3936,131.732 386.804,137.5372 C391.264,143.9672 395.294,150.7072 398.864,157.6572 C403.674,166.9972 407.644,176.8972 410.334,187.0572 C411.004,189.6272 411.674,192.2172 412.114,194.8372 C412.744,198.5372 411.774,201.4072 411.244,204.9572 C410.584,209.4572 410.344,214.0172 409.644,218.5272 C409.174,221.5172 406.634,222.9872 403.974,223.0672 C404.974,230.6772 405.694,238.3372 406.384,245.9372 C407.354,256.7972 408.014,267.6872 408.584,278.5772 C411.524,282.8472 417.534,286.2272 421.874,287.3972 C427.884,289.0072 434.184,287.2572 439.864,285.2072 C443.434,283.9172 446.364,288.4072 444.624,291.4072 C439.154,300.8272 427.454,300.7872 418.594,296.6172 C414.844,294.8572 411.554,292.3072 409.114,288.9872 C409.264,292.1472 409.424,295.3072 409.584,298.4772 L409.733019,301.348481 C411.534571,334.880433 415.424,369.565811 409.124,402.7672 C398.214,460.2772 350.621536,504.066686 292.484,507.4672 C261.975969,509.251641 236.570564,500.240629 223.937282,495.213915 C211.304,490.1872 216.214126,479.938033 224.9842,482.867831 C240.09212,487.9149 267.846269,495.434144 292.684,492.1872 C351.224,484.534485 400.864,455.275433 395.764,329.2572 C395.040771,311.386598 392.814,293.5072 392.334,275.6372 C391.874,258.1672 392.044,240.6872 391.274,223.2272 L391.017237,217.269998 C390.716593,210.309175 390.395111,203.316089 389.874,196.3472 C389.244,193.6472 388.724,190.9072 387.954,188.2572 C385.864,181.0472 383.134,174.0372 379.744,167.3472 C378.994,167.9172 378.154,168.3272 377.244,168.4872 C370.334,169.7272 363.854,169.3772 357.384,166.4972 C354.364,165.1672 351.704,163.3972 349.224,161.2072 C348.044,160.1772 347.254,159.1772 346.634,158.1372 C343.504,158.1872 340.374,157.2472 338.414,154.9972 C336.178516,152.432684 335.806716,149.783881 336.682306,147.331747 L336.774,147.0872 L336.554,147.0072 C333.914,153.8372 328.654,159.8472 322.884,163.9072 C313.764,170.3472 302.354,172.2072 291.414,172.3772 C279.334,172.5572 266.594,170.6972 254.674,168.7972 C251.524,168.2972 248.394,167.7272 245.324,166.9572 C245.204,167.0772 245.084,167.2172 244.954,167.3372 C234.724,177.1272 220.334,179.6472 207.354,174.0572 C199.854,170.8272 193.564,165.6272 188.004,159.6672 C187.924,162.7872 187.764,165.9072 187.494,168.9972 L187.38219,170.224228 C186.828578,175.979244 185.763333,182.083867 181.414,186.2372 C174.384,192.9672 164.184,190.2672 156.074,185.8872 C156.084,186.0972 156.084,186.3172 156.084,186.5372 C158.274,193.9772 160.474,201.4272 162.674,208.8772 L163.147862,210.46421 C164.747636,215.754142 166.502182,221.050836 166.984,226.5872 C167.904,237.1672 160.864,247.6172 149.104,244.0672 C142.935429,242.211771 137.993633,237.025176 133.251896,232.870958 L130.264,230.2872 C137.994,255.5572 143.354,281.7272 143.854,308.0972 C143.884,309.5272 142.654,310.6072 141.294,310.6572 C138.114,310.7872 134.694,310.1572 131.494,308.8872 C131.314,308.8772 131.134,308.8672 130.944,308.8372 C125.484,308.0472 120.414,306.0772 115.944,303.1672 C116.974,306.4372 117.434,309.9472 117.164,313.6172 C117.094,314.5072 115.704,314.8172 115.504,313.8372 C112.924,301.1472 98.074,291.5572 85.274,293.9872 C71.534,296.5972 61.414,308.4172 58.934,321.8672 C56.274,336.3172 61.364,353.0272 70.794,364.1772 C75.134,369.3172 80.844,373.6072 87.624,374.6872 C90.724,375.1772 93.944,375.0072 96.954,374.1272 C98.234,373.7472 99.434,373.2172 100.654,372.7172 C102.434,371.9972 104.514,371.8872 106.194,371.1272 C110.004,369.4172 113.834,372.9272 111.904,376.8372 C110.224,380.2472 108.714,382.5472 105.924,384.3072 C108.184,387.0672 110.234,390.9072 110.994,391.9372 C114.874,397.1772 118.814,402.1272 123.234,406.9172 C127.734,411.7772 132.644,416.2172 137.834,420.3272 L140.015504,422.05095 C145.014625,426.015794 149.36775,429.6897 152.894,435.3772 C155.674,439.8672 152.074,445.9572 146.864,445.8872 C130.564,445.6572 118.714,431.3372 110.274,418.8272 C109.074,417.0372 107.944,415.1472 106.894,413.2072 C106.514,413.8172 106.094,414.3872 105.624,414.9072 L106.554,417.4072 C109.314,424.7672 97.424,429.5772 93.974,422.7072 C91.464,417.7272 88.554,412.9872 85.314,408.5072 C83.404,408.2372 81.534,407.0772 80.494,405.5772 C77.864,401.7672 74.914,397.9172 72.424,393.8572 C71.044,392.5472 69.624,391.2872 68.174,390.0572 C67.754,390.4272 67.324,390.7972 66.914,391.1872 C65.094,395.3372 62.844,399.1272 60.054,402.6972 L59.4558229,403.45882 C54.110919,410.195002 47.1489091,417.089382 38.534,418.7372 C35.904,419.2372 33.374,415.9672 35.704,413.8772 C41.734,408.4572 48.864,404.7672 54.424,398.7172 C57.1632857,395.736486 59.6783878,392.453986 61.8412012,389.013818 L62.334,388.2172 C62.694,387.6272 63.064,387.0372 63.444,386.4372 C60.934,384.7272 58.424,383.0072 55.914,381.2872 C49.0043226,387.190426 40.0061956,389.890738 32.3636123,394.780705 L31.604,395.2772 C24.694,399.8972 17.414,389.6772 22.954,384.0672 C29.061,377.9062 34.159,370.5592 39.569,363.7112 C37.025,359.0252 35.821,353.4842 35.37,347.8842 C35.192,346.2992 35.053,344.7132 34.914,343.1272 C31.034,343.1872 27.134,341.8572 23.834,339.5672 L22.584,338.6772 C18.574,339.9572 14.364,340.5772 10.334,340.4672 C0.854,340.1872 -3.026,329.3572 2.904,322.5072 C8.954,315.5072 19.544,313.9772 27.934,317.3772 C28.204,317.2372 28.484,317.0872 28.754,316.9372 C28.354,315.0972 28.443,313.4282 28.898,311.9622 L28.766,311.0682 C26.921,308.2372 25.708,305.0052 25.248,301.5902 C24.884,298.8852 24.958,296.2042 25.584,293.5332 C25.792,292.6442 26.225,291.7232 26.556,290.7962 C25.874,289.0742 25.473,287.2942 25.349,285.5042 C25.158,285.2772 24.968,285.0442 24.788,284.7922 C20.625,278.9472 21.466,271.9042 25.428,267.1742 C25.446,266.8732 25.474,266.5722 25.515,266.2732 C25.283,265.7512 25.07,265.2242 24.876,264.6912 C21.005,260.7862 18.163,256.0872 18.693,250.2642 C19.004,246.8382 20.412,243.7542 22.543,241.4492 C22.165,240.3312 22.129,239.0362 22.587,237.9552 C19.186,228.9092 19.616,218.0142 22.064,207.8972 C21.524,206.3572 21.244,204.6872 21.304,202.9172 C21.584,195.4072 28.084,188.5072 35.784,188.5972 C36.711,188.6052 37.579,188.7262 38.413,188.9032 L38.424,188.7242 C38.719,186.4702 39.339,184.3872 40.244,182.5182 C39.799,182.3572 39.387,182.1262 39.026,181.8192 C34.092,184.4512 28.871,186.4632 23.397,187.8342 C19.372,188.8422 15.249,184.2672 17.751,180.4892 C18.912,178.7362 20.193,177.1622 21.573,175.7242 C19.611,175.7352 17.619,175.8682 15.604,176.1272 C11.984,176.5972 7.944,174.1272 5.594,170.7872 C2.674,173.6272 -0.256,176.4572 -3.186,179.2872 C-10.606,186.4772 -21.816,181.1872 -22.986,171.7072 C-25.196,171.1172 -27.256,170.1172 -29.066,168.6872 C-40.766,173.7672 -53.356,176.5572 -66.226,177.0872 C-75.466,177.4672 -80.866,166.7072 -76.546,159.1072 C-73.646,154.0072 -70.046,149.4272 -65.896,145.4472 C-72.336,147.4172 -78.986,148.8372 -85.776,149.7472 C-89.446,150.2372 -94.636,147.1972 -96.106,143.8272 C-101.726,130.8672 -101.246,117.3572 -94.776,104.7472 C-94.526,104.2472 -94.246,103.7672 -93.976,103.2872 C-93.306,101.6172 -92.576,99.9672 -91.786,98.3472 C-99.746,90.0472 -100.436,77.7072 -96.146,67.3772 C-97.866,64.5872 -98.526,61.2272 -97.356,58.1872 C-94.026,49.4372 -89.226,41.3572 -83.166,34.4172 C-83.746,33.2972 -84.256,32.1072 -84.686,30.8272 C-88.096,20.4772 -84.146,7.9872 -76.176,0.7772 C-71.166,-3.7628 -65.406,-6.4828 -59.256,-8.2228 C-56.666,-12.8028 -53.336,-16.9328 -49.456,-20.4128 C-49.306,-20.7428 -49.156,-21.0728 -48.986,-21.4028 C-42.946,-32.7828 -31.946,-38.8828 -20.156,-40.2928 C-19.696,-44.7428 -16.696,-48.9928 -12.336,-50.3728 C-11.136,-54.2228 -9.346,-57.9028 -6.886,-61.2428 C-3.016,-66.5028 3.414,-68.9828 9.474,-65.5328 C12.794,-63.6428 15.974,-61.4728 18.954,-59.0728 C20.2924615,-59.7004923 21.809858,-60.1066462 23.5219199,-60.2362046 L23.954,-60.2628 L33.814,-60.7628 C37.944,-62.5928 42.064,-64.5128 46.194,-66.3828 C48.674,-68.4328 51.444,-70.1428 54.464,-71.4128 C57.884,-72.8428 61.384,-73.6528 64.894,-73.9228 C67.744,-74.8528 70.614,-75.6728 73.534,-76.3128 C80.394,-77.8128 87.574,-78.6528 94.694,-78.5828 C94.8397143,-80.4256571 94.9119592,-82.2905551 94.8981399,-84.1774939 L94.884,-85.1228 C94.724,-91.1728 99.554,-96.0028 105.244,-96.8628 Z M98.334,387.1872 C97.354,387.3972 96.364,387.5672 95.374,387.6872 C95.674,388.4272 95.974,389.1672 96.264,389.9072 C97.064,390.3572 97.874,390.7872 98.684,391.1872 C98.444,389.8272 98.304,388.4572 98.334,387.1872 Z M46.957,371.9202 L46.2921852,373.144348 C46.1844444,373.344644 46.0783333,373.542533 45.974,373.7372 C47.384,373.6272 48.804,373.6572 50.204,373.8172 L50.2,373.6682 C50.02,373.6072 49.84,373.5512 49.668,373.4672 C48.702,373.0032 47.804,372.4832 46.957,371.9202 Z M74.724,316.0673 C83.5712222,316.582578 91.0667855,317.939098 99.1129371,321.809367 L99.804,322.1473 C106.914,325.6773 118.674,332.1973 117.684,341.5473 C117.404,344.2073 115.474,347.0073 112.434,346.7973 C104.104,346.2273 99.344,337.8273 93.704,332.5873 C88.014,327.3073 81.024,321.8773 74.134,318.2473 C73.1600714,317.736229 73.5437194,316.118639 74.6034989,316.066514 L74.724,316.0673 Z M34.604,192.8772 C32.484,192.9472 33.194,195.0072 34.284,193.2872 C34.374,193.1472 34.484,193.0072 34.604,192.8772 Z M149.04,55.3552 C128.962,55.8832 108.755,67.7382 93.714,79.7212 C80.629,90.1462 69.33,102.5462 59.325,115.9112 C56.751,122.5672 54.541,129.3622 52.674,136.2072 C51.444,140.7272 50.674,145.2972 49.644,149.8572 L49.324,151.2552 C48.515,152.7672 47.914,154.3942 47.476,156.0752 C49.299,157.9032 51.664,159.2122 54.268,159.8332 C55.107,160.0332 55.804,160.4662 56.355,161.0402 C58.451,157.5422 60.283,153.8502 61.349,149.9362 L61.388,149.7552 C65.417,143.1562 69.793,136.7622 74.484,130.5872 C87.424,113.5372 101.674,97.9972 118.804,85.0672 C131.794,75.2672 146.314,67.5872 161.754,62.5972 C157.975,59.5482 153.683,57.1362 149.04,55.3552 Z" id="ðŸ–-Ink" fill="#000000"></path>
    </g>
  </g>
  <g transform="translate(400, 250)">
    <g id="face/Explaining" stroke="none" stroke-width="1" fill="none" fill-rule="evenodd">
        <path d="M89.2809,215.2897 C101.5269,201.0597 122.1519,200.0687 139.2369,203.6267 C150.2009,205.9107 160.8759,209.7147 172.0119,211.1247 C177.2129,211.7837 182.4699,211.9807 187.7089,211.8837 C192.8549,211.7887 198.0089,210.7517 203.1369,210.9447 C203.9249,210.9737 204.2229,212.0087 203.5399,212.4297 C196.5049,216.7507 187.0279,218.1367 178.7179,218.9817 C178.7439,219.5967 178.7809,220.1967 178.8659,220.7057 C179.0929,222.0627 179.2999,223.4107 179.4669,224.7767 C179.8439,227.8577 180.2659,230.9287 180.6869,234.0037 C181.516795,240.055489 181.77767,246.298448 183.237237,252.245371 L183.4919,253.2337 C183.8299,254.4837 183.9069,255.6107 183.7939,256.6267 L184.1319,256.4737 L185.199446,255.956578 L185.8994,255.626324 C188.453377,254.442356 190.890307,253.58007 193.8929,253.8677 C196.1789,254.0857 198.0979,255.6447 198.1119,258.0857 C198.1689,269.0407 183.4049,272.5637 174.9599,274.6607 L172.483329,275.270827 C161.733854,277.892639 150.758471,280.190986 139.7029,280.7407 C121.9609,281.6217 102.0239,276.7277 90.4179,262.3367 C79.5889,248.9097 77.6039,228.8577 89.2809,215.2897 Z M169.8519,261.3177 C167.990247,244.824324 147.721699,243.917424 141.89098,254.376684 C139.303586,239.797591 101.0279,253.1167 104.0209,256.0147 C115.3649,267.0007 132.5799,267.9897 147.3789,265.9577 C154.9159,264.9227 162.4589,263.2377 169.8519,261.3177 Z M147.357836,218.088143 L142.262146,217.35466 L140.25517,217.078243 C127.622512,215.386527 113.415976,214.512736 103.0299,222.6117 C99.2379,225.5677 97.1039,229.4237 96.3069,233.5657 C106.134483,232.109117 115.998199,230.997888 125.891114,230.07257 L128.5899,229.8247 C134.7799,229.2667 140.9669,228.6787 147.1509,228.0617 L151.546025,227.616825 L155.9389,227.1607 C157.4849,226.9987 167.9039,226.4657 169.8629,226.8237 C170.0719,225.0637 170.3449,221.2547 170.7869,219.5417 C163.384817,219.792922 156.014934,219.243162 148.656305,218.26511 L147.357836,218.088143 Z M170.814304,144.367155 C178.365682,148.9572 189.871664,159.660291 181.748119,171.039573 C172.185929,181.073062 158.418535,169.568982 151.634201,164.366134 C145.343449,160.333898 138.275437,170.704507 144.112,175.412823 C193.135736,211.708059 213.030606,145.567387 174.633685,138.970386 C170.406047,138.243425 168.835891,142.947174 170.814304,144.367155 Z M184.3281,163.7039 L184.691094,163.506534 L184.813753,163.432311 C185.026054,163.294896 184.890861,163.309612 184.408176,163.476897 L184.0461,163.6069 L184.0461,163.8629 C184.1391,163.8059 184.2381,163.7629 184.3281,163.7039 Z M87.6173265,122.923881 L87.6160369,122.698595 C87.6300369,116.321808 91.344047,101.762216 100.524157,101.762216 C106.259134,101.762216 109.740999,111.67102 110.343765,121.885575 L110.3647,122.302049 C110.630879,128.652574 108.888163,142.533717 100.524157,142.533717 C92.071637,142.533717 87.7042339,129.386546 87.6173265,122.923881 L87.6173265,122.923881 Z M222.772617,120.923881 L222.773907,120.698595 C222.759907,114.321808 219.045897,99.7622157 209.865787,99.7622157 C204.274184,99.7622157 200.824446,109.181773 200.096775,119.120207 L200.046179,119.885575 C199.684084,126.021693 201.313826,140.533717 209.865787,140.533717 C218.318307,140.533717 222.68571,127.386546 222.772617,120.923881 L222.772617,120.923881 Z M92.8551,58.2848 C100.3471,57.1458 110.2681,59.3098 113.7611,66.9278 C115.3171,70.3218 113.4741,74.0748 109.5511,74.2628 C100.0701,74.7168 91.5671,72.6068 83.2451,78.7718 C79.6636455,81.4254364 76.6525752,85.0995686 74.1257849,88.7644236 L73.1697217,90.1591512 L72.3778765,91.3082057 C70.6621184,93.8307086 69.0374104,96.5713104 69.2911,99.6148 C69.3661,100.5158 68.4451,101.3708 67.5701,101.3348 C62.1161,101.1108 61.5291,94.2728 62.2461,90.1658 C63.5801,82.5438 67.2691,75.3888 72.3821,69.6258 C77.7521,63.5738 84.8411,59.5038 92.8551,58.2848 Z M196.0443,67.5353 C201.2103,64.2143 207.8183,62.9383 213.8703,63.4273 C225.8033,64.3883 245.8223,74.5323 243.1873,89.1073 C242.3743,93.6023 236.1223,95.9743 232.4383,93.4803 C228.4773,90.7993 227.5133,86.6323 224.5653,83.1283 C222.2133,80.3293 219.2323,78.3043 216.0403,76.5793 C212.894089,74.8778263 209.25425,73.8467903 205.683661,73.4708871 L205.0893,73.4143 C202.9403,73.2313 192.0883,73.2803 193.6813,77.3313 C193.9933,78.1243 192.8133,78.7523 192.2713,78.1523 C188.9443,74.4723 192.7123,69.6773 196.0443,67.5353 Z" id="ðŸ–-Ink" fill="#000000"></path>
    </g>
  </g>
</svg>
