<?xml version="1.0" encoding="UTF-8" standalone="no"?>
<!-- Created with Inkscape (http://www.inkscape.org/) -->

<svg
   width="50mm"
   height="50mm"
   viewBox="0 0 50 50"
   version="1.1"
   id="svg1"
   inkscape:version="1.4.2 (ebf0e940, 2025-05-08)"
   sodipodi:docname="logo.svg"
   inkscape:export-filename="favicon-32x32.png"
   inkscape:export-xdpi="16.26"
   inkscape:export-ydpi="16.26"
   xmlns:inkscape="http://www.inkscape.org/namespaces/inkscape"
   xmlns:sodipodi="http://sodipodi.sourceforge.net/DTD/sodipodi-0.dtd"
   xmlns="http://www.w3.org/2000/svg"
   xmlns:svg="http://www.w3.org/2000/svg">
  <sodipodi:namedview
     id="namedview1"
     pagecolor="#ffffff"
     bordercolor="#000000"
     borderopacity="0.25"
     inkscape:showpageshadow="2"
     inkscape:pageopacity="0.0"
     inkscape:pagecheckerboard="0"
     inkscape:deskcolor="#d1d1d1"
     inkscape:document-units="mm"
     inkscape:zoom="4.15"
     inkscape:cx="94.578313"
     inkscape:cy="94.457831"
     inkscape:window-width="1472"
     inkscape:window-height="891"
     inkscape:window-x="0"
     inkscape:window-y="37"
     inkscape:window-maximized="0"
     inkscape:current-layer="layer1" />
  <defs
     id="defs1" />
  <g
     inkscape:label="Layer 1"
     inkscape:groupmode="layer"
     id="layer1">
    <g
       id="g10"
       style="stroke:#000000;stroke-width:0.7;stroke-dasharray:none"
       transform="matrix(1.2590477,0,0,1.2590477,-3.4741765,1.896902)">
      <path
         id="path3"
         style="fill:none;stroke:#000000;stroke-width:0.7;stroke-dasharray:none"
         d="m 19.737261,24.678805 a 9.2339268,9.2339268 0 0 1 -2.432202,-6.245154 9.2339268,9.2339268 0 0 1 0.360587,-2.555238" />
      <path
         id="path9"
         style="fill:none;stroke:#000000;stroke-width:0.7;stroke-dasharray:none"
         d="m 34.335923,13.486613 a 9.2339268,9.2339268 0 0 1 1.43699,4.947038 v 0 a 9.2339268,9.2339268 0 0 1 -0.985659,4.151081" />
      <g
         id="g4"
         style="stroke:#000000;stroke-width:0.7;stroke-dasharray:none">
        <path
           style="fill:none;stroke:#000000;stroke-width:0.7;stroke-dasharray:none"
           d="m 3.4541724,20.827633 c 0,0 1.744186,2.359781 5.6771545,2.051984 3.9329681,-0.307798 9.9521201,-11.593707 17.3734621,-11.525308 7.42134,0.0684 15.321475,7.079343 15.321475,7.079343 l -0.102597,-0.0684"
           id="path1" />
        <path
           style="fill:none;stroke:#000000;stroke-width:0.7;stroke-dasharray:none"
           d="m 12.893297,22.571819 c 0,0 5.369357,2.599179 12.893296,2.770178 7.52394,0.170999 13.474692,-6.361149 13.474692,-6.361149 l -0.0684,-0.102599"
           id="path2" />
      </g>
    </g>
    <path
       sodipodi:type="star"
       style="fill:#000000;stroke:#000000;stroke-width:0.7;stroke-dasharray:none"
       id="path10"
       inkscape:flatsided="false"
       sodipodi:sides="6"
       sodipodi:cx="30.729919"
       sodipodi:cy="33.535141"
       sodipodi:r1="5.7704458"
       sodipodi:r2="3.1160407"
       sodipodi:arg1="0.78539816"
       sodipodi:arg2="1.3089969"
       inkscape:rounded="0.14"
       inkscape:randomized="0.3"
       d="m 36.350514,37.631083 c -0.190451,0.41896 -3.994971,-2.674946 -4.516718,-2.557122 -0.521746,0.117823 -2.599581,3.941003 -3.065821,4.018588 -0.46624,0.07758 0.526558,-3.390191 0.248764,-3.716904 -0.277793,-0.326713 -4.79282,1.600191 -4.858814,1.051065 -0.06599,-0.549125 2.420452,-4.460102 2.566377,-4.917763 0.145924,-0.457662 -1.973821,-3.27899 -1.54933,-3.508416 0.42449,-0.229426 4.901671,2.534557 5.406583,2.527566 0.504911,-0.007 1.947072,-3.101405 2.362548,-2.774336 0.415477,0.327069 -0.84883,2.197047 -0.435357,2.502209 0.413473,0.305162 4.733268,0.221372 4.801744,0.704523 0.06848,0.483151 -2.274629,2.528955 -2.379728,3.053551 -0.105099,0.524595 1.610203,3.19808 1.419752,3.617039 z"
       transform="matrix(1.0989269,-0.48067842,0.48067842,1.0989269,-19.501454,3.277324)" />
  </g>
</svg>
